<svg xmlns="http://www.w3.org/2000/svg" viewBox="0 0 520 160" role="img" aria-labelledby="title desc">
  <title id="title">Garemo</title>
  <desc id="desc">Logo de Garemo con marcador verde, estrella amarilla y el texto Compra talento universitario.</desc>
  <defs>
    <linearGradient id="pinGradient" x1="20" x2="122" y1="22" y2="128" gradientUnits="userSpaceOnUse">
      <stop offset="0" stop-color="#22C47A"/>
      <stop offset="1" stop-color="#1BA463"/>
    </linearGradient>
    <filter id="softShadow" x="-20%" y="-20%" width="140%" height="150%">
      <feDropShadow dx="0" dy="8" stdDeviation="8" flood-color="#0B1F3D" flood-opacity=".12"/>
    </filter>
  </defs>

  <g filter="url(#softShadow)">
    <path fill="url(#pinGradient)" d="M72 14c-14 0-26 6-37 17L18 48C2 64 2 90 18 106l54 54 54-54c16-16 16-42 0-58l-17-17C98 20 86 14 72 14Zm0 18a9 9 0 1 1 0 18 9 9 0 0 1 0-18Z"/>
    <path fill="#FFF4E2" d="M72 56c-20 0-36 16-36 36s16 36 36 36c18 0 33-13 36-30H76V82h52v11c0 32-25 57-56 57S15 124 15 92s26-57 57-57c16 0 31 7 41 18L99 67a38 38 0 0 0-27-11Z"/>
    <path fill="#1BA463" d="M90 86h39v13H90c-7 0-13-3-17-8l12-10c1 3 3 5 5 5Z"/>
    <path fill="#F2B227" d="M52 70c8 11 10 13 21 21-11 8-13 10-21 21-8-11-10-13-21-21 11-8 13-10 21-21Z"/>
  </g>

  <text x="154" y="88" fill="#0B1F3D" font-family="'Arial Rounded MT Bold','Trebuchet MS',system-ui,sans-serif" font-size="58" font-weight="900" letter-spacing="0">GAREMO</text>
  <text x="158" y="124" fill="#0B1F3D" font-family="'Trebuchet MS',system-ui,sans-serif" font-size="24" font-weight="600" letter-spacing="0">Compra talento universitario</text>
</svg>
