<svg xmlns="http://www.w3.org/2000/svg" viewBox="0 0 160 160">
  <defs>
    <linearGradient id="pinGradient" x1="24" x2="136" y1="18" y2="140" gradientUnits="userSpaceOnUse">
      <stop offset="0" stop-color="#22C47A"/>
      <stop offset="1" stop-color="#1BA463"/>
    </linearGradient>
  </defs>
  <rect width="160" height="160" rx="36" fill="#FFF4E2"/>
  <path fill="url(#pinGradient)" d="M80 12c-15 0-29 6-40 18L22 48C4 66 4 94 22 112l58 58 58-58c18-18 18-46 0-64l-18-18C109 18 95 12 80 12Zm0 20a10 10 0 1 1 0 20 10 10 0 0 1 0-20Z"/>
  <path fill="#FFF4E2" d="M80 58c-20 0-36 16-36 36s16 36 36 36c18 0 33-13 36-30H84V84h52v11c0 32-25 57-56 57s-57-26-57-58 26-57 57-57c16 0 31 7 41 18l-14 14a38 38 0 0 0-27-11Z"/>
  <path fill="#1BA463" d="M98 88h39v13H98c-7 0-13-3-17-8l12-10c1 3 3 5 5 5Z"/>
  <path fill="#F2B227" d="M60 72c8 11 10 13 21 21-11 8-13 10-21 21-8-11-10-13-21-21 11-8 13-10 21-21Z"/>
</svg>
